<svg width="418" height="68" fill="none" xmlns="http://www.w3.org/2000/svg">
    <path fill-rule="evenodd" clip-rule="evenodd" d="M0 29.272c49.811 3.884 142.803 3.595 173.912-.397 21.624-2.775 41.234-6.884 60.313-10.882 9.122-1.911 18.188-4.302 27.322-6.71C282.757 5.688 304.329 0 327.8 0c21.918 0 42.092 9.713 61.037 18.833 5.986 2.882 11.85 5.705 17.607 8.144l.008.003.006.003c3.917 1.659 7.764 3.288 11.542 4.835v35.904H0v-38.45Zm304.713-18.374c.504.522-.617.933-1.537 1.27l-.013.006c-.312.114-.495.193-.63.25-.263.114-.34.147-.83.21-.089.011-.313.075-.529.137-.202.057-.397.113-.468.122-.374.046-.655.162-.902.264-.153.063-.292.12-.433.153-.906.208-1.819.377-2.657.531l-.103.02c-.89.164-1.7.315-2.482.5-1.502.354-3.015.66-4.483.952l-.45.09c-.626.124-1.156.186-1.676.246-.578.067-1.143.132-1.811.281-.839.188-1.518.3-2.186.411-.76.126-1.507.25-2.465.48-.24.057-.813.169-1.385.28h-.001c-.567.111-1.134.222-1.373.279-.999.238-1.863.388-2.194-.19-.227-.395-.155-.43.246-.632a7.13 7.13 0 0 0 .766-.434c.233-.056.79-.237 1.346-.419.555-.18 1.111-.362 1.347-.418.845-.203 1.46-.387 2.062-.568a30.537 30.537 0 0 1 2.335-.625c1.342-.3 2.697-.57 4.01-.83l.452-.09c1.468-.293 2.887-.58 4.274-.908a57.76 57.76 0 0 1 2.776-.562l.054-.01a3.4 3.4 0 0 1 .924-.052c.245.014.475.027.866-.063.267-.062.642-.167 1.04-.278.66-.184 1.38-.386 1.765-.432l.087-.011.243-.03c.766-.098 1.182-.177 1.428-.268.923-.338 2.081-.187 2.587.338ZM16.159 34.188c.534-.073 1.183-.161 1.09-.672-.095-.514-.604-.872-1.14-.8-.142.02-.363-.004-.755-.087-.052-.01-.108-.023-.168-.036-.197-.043-.598-.036-.964-.029-.22.004-.429.008-.573 0-.212-.01-.318-.068-.431-.13-.11-.059-.227-.123-.456-.15l-.028-.003a19.418 19.418 0 0 0-1.48-.137 42.313 42.313 0 0 1-2.293-.18l-.24-.023c-.7-.068-1.422-.139-2.146-.183a10.766 10.766 0 0 0-1.288.003c-.338.016-.683.033-1.143.015-.128-.005-.444.021-.76.047a9.63 9.63 0 0 1-.759.047c-.216.1-.373.146-.487.18-.247.074-.292.087-.295.442-.004.519.45.58.994.602.13.005.431.036.733.068.304.031.608.063.739.068.52.02.912.078 1.31.137.35.052.704.105 1.157.133.36.022.648.088.943.156.264.06.534.122.868.155l.24.023a44.4 44.4 0 0 0 2.404.187c.425.018.853.068 1.324.124l.054.007c.443.053.926.11 1.416.136.076.004.159-.012.25-.03a1.2 1.2 0 0 1 .503-.018c.037.008.146.005.258.002.12-.004.245-.007.29.002.252.053.297.043.455.01.08-.018.19-.041.37-.066h.008Z" fill="#fff"/>
</svg>
